<?xml version="1.0"?>
<svg xmlns="http://www.w3.org/2000/svg" height="512px" viewBox="0 0 512 512.0005" width="512px" class=""><g><path d="m222.800781 256c0 8.285156-6.71875 15-15 15h-96.402343c-8.28125 0-15-6.714844-15-15s6.71875-15 15-15h96.402343c8.28125 0 15 6.714844 15 15zm0 0" fill="#2633d8" data-original="#2633D8" class=""/><path d="m256 222.800781c-8.285156 0-15-6.714843-15-15v-96.402343c0-8.28125 6.714844-15 15-15s15 6.71875 15 15v96.402343c0 8.285157-6.714844 15-15 15zm0 0" fill="#2633d8" data-original="#2633D8" class=""/><path d="m256 96.398438v126.402343c8.285156 0 15-6.714843 15-15v-96.402343c0-8.28125-6.714844-15-15-15zm0 0" fill="#141b73" data-original="#141B73" class=""/><path d="m256 289.199219c-8.285156 0-15 6.714843-15 15v96.402343c0 8.28125 6.714844 15 15 15s15-6.71875 15-15v-96.402343c0-8.285157-6.714844-15-15-15zm0 0" fill="#2633d8" data-original="#2633D8" class=""/><path d="m256 415.601562v-126.402343c8.285156 0 15 6.714843 15 15v96.402343c0 8.28125-6.714844 15-15 15zm0 0" fill="#141b73" data-original="#141B73" class=""/><path d="m256 319.199219c-34.847656 0-63.199219-28.351563-63.199219-63.199219s28.351563-63.199219 63.199219-63.199219 63.199219 28.351563 63.199219 63.199219-28.351563 63.199219-63.199219 63.199219zm0 0" fill="#00ceff" data-original="#00CEFF" class="active-path" style="fill:#00A8FF" data-old_color="#006BFF"/><path d="m289.199219 256c0-8.285156 6.714843-15 15-15h96.402343c8.28125 0 15 6.714844 15 15s-6.71875 15-15 15h-96.402343c-8.285157 0-15-6.714844-15-15zm0 0" fill="#141b73" data-original="#141B73" class=""/><path d="m352.398438 126.398438h-192.796876c-13.335937 0-20.039062-16.175782-10.609374-25.605469l96.402343-96.398438c5.855469-5.859375 15.355469-5.859375 21.210938 0l96.402343 96.398438c9.429688 9.429687 2.730469 25.605469-10.609374 25.605469zm0 0" fill="#00ceff" data-original="#00CEFF" class="active-path" style="fill:#00A8FF" data-old_color="#006BFF"/><path d="m266.605469 4.394531c-2.925781-2.929687-6.765625-4.394531-10.605469-4.394531v126.398438h96.398438c13.335937 0 20.039062-16.175782 10.605468-25.605469zm0 0" fill="#0092dd" data-original="#0092DD" class="" style="fill:#00A8FF" data-old_color="#00AFFF"/><path d="m256 192.800781v126.398438c34.847656 0 63.199219-28.351563 63.199219-63.199219s-28.351563-63.199219-63.199219-63.199219zm0 0" fill="#0092dd" data-original="#0092DD" class="" style="fill:#00A8FF" data-old_color="#00AFFF"/><path d="m363.007812 411.207031-96.402343 96.398438c-5.855469 5.859375-15.355469 5.859375-21.210938 0l-96.402343-96.398438c-9.429688-9.429687-2.726563-25.605469 10.609374-25.605469h192.796876c13.339843 0 20.039062 16.175782 10.609374 25.605469zm0 0" fill="#00ceff" data-original="#00CEFF" class="active-path" style="fill:#00A8FF" data-old_color="#006BFF"/><path d="m266.605469 507.605469c-2.925781 2.929687-6.765625 4.394531-10.605469 4.394531v-126.398438h96.398438c13.335937 0 20.039062 16.175782 10.605468 25.605469zm0 0" fill="#0092dd" data-original="#0092DD" class="" style="fill:#00A8FF" data-old_color="#00AFFF"/><path d="m385.601562 352.398438v-192.796876c0-13.335937 16.175782-20.039062 25.605469-10.609374l96.398438 96.402343c5.859375 5.855469 5.859375 15.355469 0 21.210938l-96.398438 96.402343c-9.429687 9.429688-25.605469 2.730469-25.605469-10.609374zm0 0" fill="#0092dd" data-original="#0092DD" class="" style="fill:#00A8FF" data-old_color="#00AFFF"/><path d="m126.398438 159.601562v192.796876c0 13.335937-16.175782 20.039062-25.605469 10.609374l-96.398438-96.402343c-5.859375-5.855469-5.859375-15.355469 0-21.210938l96.398438-96.402343c9.429687-9.429688 25.605469-2.726563 25.605469 10.609374zm0 0" fill="#00ceff" data-original="#00CEFF" class="active-path" style="fill:#00A8FF" data-old_color="#006BFF"/></g> </svg>
